<?xml version="1.0" standalone="no"?>
<!DOCTYPE svg PUBLIC "-//W3C//DTD SVG 20010904//EN"
 "http://www.w3.org/TR/2001/REC-SVG-20010904/DTD/svg10.dtd">
<svg version="1.0" xmlns="http://www.w3.org/2000/svg"
 width="512.000000pt" height="512.000000pt" viewBox="0 0 512.000000 512.000000"
 preserveAspectRatio="xMidYMid meet">
<metadata>
Created by potrace 1.14, written by Peter Selinger 2001-2017
</metadata>
<g transform="translate(0.000000,512.000000) scale(0.100000,-0.100000)"
fill="#000000" stroke="none">
<path d="M2890 5049 c-72 -11 -156 -46 -209 -87 -20 -15 -45 -29 -56 -32 -32
-9 -29 -36 14 -123 51 -104 68 -175 77 -307 8 -125 -8 -262 -43 -372 -28 -91
-27 -90 -158 -58 -168 42 -323 127 -419 231 -66 71 -101 128 -133 217 -26 70
-53 122 -64 122 -9 0 -49 -65 -84 -137 -28 -57 -55 -179 -55 -252 0 -68 26
-160 60 -208 l29 -42 -27 -19 c-102 -72 -322 -150 -448 -159 -104 -7 -168 8
-239 58 -83 58 -110 70 -124 56 -20 -20 -12 -46 27 -90 21 -23 55 -69 76 -101
21 -33 59 -81 83 -107 l44 -47 -37 -12 c-66 -22 -209 -127 -292 -215 -194
-204 -353 -527 -423 -855 -19 -86 -23 -137 -23 -285 0 -165 3 -193 32 -333 35
-164 84 -329 136 -451 28 -63 34 -92 38 -176 7 -121 32 -193 90 -259 52 -60
103 -86 168 -86 49 0 55 -3 131 -67 43 -38 79 -74 79 -82 0 -7 -25 -37 -55
-67 -130 -129 -141 -276 -25 -337 56 -29 203 -19 461 33 l215 43 99 -47 c56
-26 125 -51 160 -56 33 -6 105 -20 160 -33 l100 -23 7 -43 c15 -86 77 -152
162 -171 57 -13 115 -6 205 21 67 21 362 139 421 169 19 10 92 32 162 49 296
71 554 200 779 387 167 139 358 367 458 548 295 533 274 1285 -49 1781 -57 87
-190 230 -257 276 l-42 30 62 52 c112 96 208 251 192 314 -5 23 -40 33 -47 13
-6 -18 -171 -69 -263 -81 -193 -25 -373 8 -510 95 -68 44 -85 48 -85 22 0 -24
82 -94 144 -125 88 -43 167 -61 291 -67 101 -6 233 8 334 33 24 6 24 6 -7 -39
-75 -110 -224 -211 -382 -259 -60 -19 -97 -23 -185 -23 -129 1 -171 13 -291
85 -78 46 -124 61 -124 39 0 -5 -4 -10 -10 -10 -11 0 -43 99 -59 185 -7 33
-14 70 -17 83 -2 12 -12 22 -21 22 -14 0 -15 -11 -10 -92 12 -188 79 -345 203
-477 42 -45 72 -81 66 -81 -33 0 -200 35 -272 56 -189 57 -311 151 -377 289
-37 80 -45 132 -29 206 7 32 6 38 -13 44 -30 9 -36 3 -82 -85 -68 -131 -210
-248 -371 -306 -119 -43 -194 -56 -353 -60 -155 -4 -159 -4 -135 13 125 91
190 157 266 274 24 36 59 78 78 93 59 45 91 126 44 111 -13 -3 -34 -9 -48 -12
-13 -4 -33 -17 -43 -30 -20 -25 -92 -65 -161 -89 -74 -26 -174 -35 -259 -24
-153 21 -271 79 -391 192 -70 66 -70 67 -36 60 63 -13 242 -7 310 11 83 22
229 94 301 149 134 103 140 114 88 164 -17 16 -37 40 -44 54 -31 61 -26 197
12 314 l15 48 42 -77 c110 -208 363 -388 603 -428 l77 -13 -41 -45 c-33 -35
-40 -50 -36 -71 7 -38 45 -70 79 -66 40 4 40 23 -1 46 -19 12 -35 27 -35 34 1
18 96 118 112 118 7 0 19 4 27 9 12 8 12 12 2 25 -10 12 -8 26 13 79 44 110
57 184 63 347 6 183 -8 267 -61 375 -33 65 -34 71 -18 84 36 28 142 72 189 78
64 7 190 -14 197 -33 15 -39 28 -209 22 -296 -8 -128 -27 -225 -71 -355 -52
-155 -106 -251 -205 -361 -109 -121 -116 -130 -103 -143 23 -23 77 3 139 66
l62 62 110 -5 c81 -3 130 0 188 13 150 33 329 119 426 204 l47 42 12 -39 c6
-22 10 -72 7 -113 -5 -96 -39 -171 -108 -238 -59 -57 -63 -84 -13 -89 94 -9
215 222 199 379 -6 60 -19 97 -48 140 -9 14 -15 29 -11 32 3 3 3 13 -1 22 -5
14 -9 14 -38 -1 -18 -9 -69 -46 -113 -81 -96 -77 -269 -164 -380 -193 -84 -21
-245 -38 -245 -26 0 5 8 20 19 34 37 54 99 189 130 287 54 168 65 236 66 400
0 132 -3 159 -24 225 -13 41 -29 81 -35 89 -29 37 -133 55 -236 40z m-1508
-1548 c119 -64 210 -85 353 -78 73 3 137 11 164 21 24 9 45 16 48 16 13 0 -63
-83 -127 -138 -67 -58 -191 -129 -250 -145 -17 -4 -21 -12 -18 -34 3 -25 8
-29 63 -41 34 -8 130 -14 225 -15 134 -1 183 3 260 20 198 43 341 116 462 234
43 42 78 69 78 61 0 -31 62 -140 110 -195 142 -158 389 -249 713 -264 143 -6
187 0 187 27 0 25 -26 42 -127 80 -114 44 -191 115 -273 255 l-23 40 42 -47
c81 -91 225 -136 396 -125 105 7 246 45 325 88 l55 30 90 -93 c111 -116 200
-244 270 -391 93 -197 137 -363 156 -589 26 -305 -35 -618 -173 -890 -81 -161
-162 -271 -303 -414 -186 -189 -376 -317 -612 -414 -105 -43 -134 -51 -196
-53 -70 -2 -77 -4 -172 -62 -128 -77 -228 -122 -411 -185 -174 -59 -239 -65
-295 -27 -45 30 -66 87 -50 142 16 62 64 110 188 192 102 68 123 78 201 94 47
10 129 23 182 30 142 16 171 38 149 109 -5 19 -20 90 -33 156 l-22 121 74 6
c40 3 80 11 88 17 20 18 17 57 -5 70 -11 5 -80 10 -154 10 -210 0 -343 42
-367 115 -9 29 -8 41 11 84 40 94 129 147 280 166 73 9 91 20 65 40 -11 8 -32
15 -47 15 -25 0 -29 4 -40 58 -6 31 -15 85 -18 119 -4 34 -10 65 -14 69 -3 4
-32 9 -63 13 l-57 6 -19 54 c-23 70 -44 93 -77 87 -14 -3 -50 -8 -79 -11 l-52
-7 -30 66 c-17 37 -38 70 -47 73 -29 11 -168 -15 -250 -47 -119 -45 -248 -126
-328 -205 -39 -38 -78 -81 -86 -94 -15 -23 -15 -23 -52 37 -56 90 -159 212
-214 253 -68 50 -100 69 -117 69 -8 0 -53 -29 -100 -64 l-85 -64 -64 5 c-65 6
-65 5 -81 -25 -9 -17 -16 -40 -16 -51 0 -38 -11 -51 -46 -51 -58 0 -74 -27
-74 -120 0 -43 5 -102 11 -129 6 -28 9 -53 7 -56 -2 -3 -40 -8 -86 -10 -61 -3
-92 -9 -118 -24 -19 -12 -37 -21 -39 -21 -9 0 -66 165 -94 270 -44 164 -59
242 -71 370 -33 324 81 727 294 1040 76 112 234 264 346 333 51 31 97 57 101
57 4 0 40 -18 81 -39z m227 -1657 c25 -29 69 -97 97 -151 37 -72 55 -98 70
-98 11 0 20 8 22 20 6 28 105 139 181 201 104 87 256 158 398 188 l61 13 21
-55 c11 -31 19 -57 18 -57 -1 -1 -29 -12 -62 -25 -140 -55 -302 -151 -380
-227 -22 -22 -61 -55 -87 -73 -52 -37 -78 -69 -78 -98 0 -31 -50 -46 -128 -38
-84 9 -116 36 -167 144 -61 128 -161 251 -250 307 -17 11 -32 20 -34 22 -5 3
38 39 93 75 l40 27 69 -62 c38 -34 90 -85 116 -113z m-380 29 c56 -27 96 -57
151 -112 70 -71 132 -156 99 -135 -8 4 -47 30 -88 57 -73 49 -209 119 -251
130 -18 5 -21 11 -16 29 3 13 6 33 6 46 0 30 11 28 99 -15z m1461 -19 c7 -30
10 -57 8 -59 -2 -2 -66 -13 -143 -24 -123 -18 -300 -56 -360 -76 -38 -13 57
47 137 87 63 32 309 124 340 127 4 1 12 -24 18 -55z m-1585 -115 c143 -45 277
-129 468 -292 54 -47 57 -51 57 -95 0 -120 97 -643 122 -658 5 -4 16 0 24 8
12 12 9 40 -25 203 -22 105 -49 246 -60 315 -12 69 -23 135 -26 147 -5 20 -3
21 27 12 49 -14 145 -11 177 6 16 8 40 29 55 47 79 99 155 145 319 192 169 49
541 108 583 92 7 -3 14 -18 14 -33 0 -15 7 -53 15 -83 8 -30 15 -56 15 -56 0
-1 -18 -4 -39 -7 -53 -7 -139 -47 -182 -85 -41 -36 -84 -111 -93 -164 -23
-127 90 -219 308 -249 l81 -11 2 -82 c1 -50 9 -106 22 -146 26 -82 26 -80 -6
-80 -38 0 -229 -34 -333 -58 -186 -44 -342 -109 -439 -183 -63 -48 -95 -59
-171 -59 -69 0 -124 25 -128 59 -5 35 -116 141 -188 178 -33 18 -110 49 -170
69 -95 33 -123 38 -214 40 l-104 2 -8 27 c-4 15 -14 75 -23 134 l-17 106 36
60 c62 102 71 168 32 250 -25 54 -81 110 -132 131 -18 8 -35 18 -39 24 -5 7
-55 252 -55 267 0 1 6 1 13 -2 6 -2 44 -13 82 -26z m-60 -324 c77 -28 102 -47
121 -92 34 -78 -1 -180 -87 -257 -115 -103 -209 -95 -284 25 -75 118 -70 300
9 335 52 22 164 17 241 -11z m65 -457 c0 -16 -3 -19 -11 -11 -6 6 -8 16 -5 22
11 17 16 13 16 -11z m255 -330 c50 -31 124 -72 165 -93 l75 -38 -160 -33
c-201 -42 -326 -46 -362 -12 -41 39 -21 119 48 188 66 66 109 64 234 -12z
m440 -166 c-3 -3 -18 7 -33 23 l-27 28 33 -23 c18 -12 31 -25 27 -28z m507
-32 c-36 -48 -53 -57 -86 -44 -13 5 -12 9 8 25 21 16 106 69 113 69 1 0 -14
-22 -35 -50z"/>
<path d="M1711 2750 c-87 -21 -133 -94 -139 -220 -3 -78 -1 -90 25 -140 30
-59 74 -96 129 -106 70 -13 170 66 190 149 6 25 4 27 -24 27 -47 0 -75 29 -75
79 0 54 35 95 75 89 l27 -4 -15 35 c-8 19 -20 41 -26 48 -30 37 -110 57 -167
43z m109 -305 c0 -8 -7 -15 -15 -15 -8 0 -15 7 -15 15 0 8 7 15 15 15 8 0 15
-7 15 -15z"/>
<path d="M2417 2746 c-87 -32 -129 -106 -130 -225 -1 -120 48 -203 134 -230
86 -28 188 44 214 150 6 24 4 25 -24 21 -22 -3 -36 2 -55 21 -53 53 -17 147
55 147 10 0 19 5 19 11 0 20 -39 76 -65 93 -35 23 -103 29 -148 12z m115 -308
c-15 -15 -26 -4 -18 18 5 13 9 15 18 6 9 -9 9 -15 0 -24z"/>
<path d="M1925 1283 c32 -320 112 -733 141 -733 36 0 30 97 -15 258 -17 59
-46 197 -66 307 -41 230 -43 235 -57 235 -7 0 -8 -23 -3 -67z"/>
</g>
</svg>
